<svg width="18" height="18" viewBox="0 0 18 18" fill="none" xmlns="http://www.w3.org/2000/svg">
<path d="M6.45833 8.95833C6.45833 9.41857 6.08524 9.79167 5.625 9.79167C5.16476 9.79167 4.79167 9.41857 4.79167 8.95833C4.79167 8.49809 5.16476 8.125 5.625 8.125C6.08524 8.125 6.45833 8.49809 6.45833 8.95833Z" fill="#877EFF"/>
<path d="M9.79167 8.95833C9.79167 9.41857 9.41857 9.79167 8.95833 9.79167C8.49809 9.79167 8.125 9.41857 8.125 8.95833C8.125 8.49809 8.49809 8.125 8.95833 8.125C9.41857 8.125 9.79167 8.49809 9.79167 8.95833Z" fill="#877EFF"/>
<path d="M13.125 8.95833C13.125 9.41857 12.7519 9.79167 12.2917 9.79167C11.8314 9.79167 11.4583 9.41857 11.4583 8.95833C11.4583 8.49809 11.8314 8.125 12.2917 8.125C12.7519 8.125 13.125 8.49809 13.125 8.95833Z" fill="#877EFF"/>
<path fill-rule="evenodd" clip-rule="evenodd" d="M17.9167 8.95833C17.9167 4.01078 13.9059 0 8.95833 0C4.01078 0 0 4.01078 0 8.95833C0 10.3903 0.336423 11.7454 0.935105 12.9474C1.02444 13.1267 1.0434 13.3099 1.00217 13.464L0.50583 15.319C0.166062 16.5889 1.32781 17.7506 2.59767 17.4108L4.4527 16.9145C4.60678 16.8733 4.78992 16.8922 4.96929 16.9816C6.17127 17.5802 7.52641 17.9167 8.95833 17.9167C13.9059 17.9167 17.9167 13.9059 17.9167 8.95833ZM8.95833 1.25C13.2155 1.25 16.6667 4.70114 16.6667 8.95833C16.6667 13.2155 13.2155 16.6667 8.95833 16.6667C7.72412 16.6667 6.55934 16.3771 5.52659 15.8627C5.11209 15.6562 4.61644 15.5767 4.12961 15.707L2.27458 16.2033C1.93388 16.2945 1.6222 15.9828 1.71335 15.6421L2.20969 13.7871C2.33995 13.3002 2.26045 12.8046 2.054 12.3901C1.5396 11.3573 1.25 10.1925 1.25 8.95833C1.25 4.70114 4.70114 1.25 8.95833 1.25Z" fill="#877EFF"/>
</svg>
