<?xml version="1.0" encoding="UTF-8"?>
<svg version="1.1" xmlns="http://www.w3.org/2000/svg" width="128" height="128">
<path d="M0 0 C12.64674047 10.73056767 18.71755423 23.85197316 20.42578125 40.0703125 C20.90069581 54.46972197 16.18947316 68.21624892 6.8359375 79.15625 C-3.34553389 89.72736173 -15.90603305 95.95805137 -30.66796875 97.046875 C-46.74234875 97.31515394 -60.99316285 92.48681601 -72.6640625 81.24609375 C-83.39176507 69.79203632 -88.31810556 55.74333367 -88.125 40.12109375 C-87.11294035 24.39668551 -80.46109516 11.43827779 -68.9140625 0.84375 C-48.72534806 -15.05892697 -20.60777617 -15.24864939 0 0 Z M-65.81640625 6.76953125 C-75.82925433 16.67050393 -81.10925454 28.35948244 -81.2265625 42.34375 C-81.23952384 56.71067173 -76.34432549 67.09270592 -66.6015625 77.59375 C-56.51672352 87.13832975 -45.21960679 90.36528828 -31.66796875 90.26342773 C-17.91381302 89.81710653 -6.89559112 83.70041232 2.4921875 73.78125 C11.91528784 62.32571625 14.15928889 50.42686623 13.29736328 35.97802734 C12.09845572 23.87542928 5.16498753 14.16084664 -3.34765625 5.921875 C-21.68687395 -8.92814603 -47.80187085 -8.30252106 -65.81640625 6.76953125 Z " fill="#877EFF" transform="translate(97.9140625,21.15625)"/>
<path d="M0 0 C2.475 0.495 2.475 0.495 5 1 C5 9.58 5 18.16 5 27 C13.58 27 22.16 27 31 27 C31.495 29.475 31.495 29.475 32 32 C31 33 31 33 28.49975586 33.11352539 C27.41573486 33.10828857 26.33171387 33.10305176 25.21484375 33.09765625 C24.16159912 33.09515869 23.10835449 33.09266113 22.02319336 33.09008789 C20.67491455 33.08098389 19.32663574 33.07187988 17.9375 33.0625 C13.668125 33.041875 9.39875 33.02125 5 33 C5 41.58 5 50.16 5 59 C2.525 59.495 2.525 59.495 0 60 C-1 59 -1 59 -1.11352539 56.49975586 C-1.10828857 55.41573486 -1.10305176 54.33171387 -1.09765625 53.21484375 C-1.09515869 52.16159912 -1.09266113 51.10835449 -1.09008789 50.02319336 C-1.08098389 48.67491455 -1.07187988 47.32663574 -1.0625 45.9375 C-1.041875 41.668125 -1.02125 37.39875 -1 33 C-9.58 33 -18.16 33 -27 33 C-27.33 31.35 -27.66 29.7 -28 28 C-27 27 -27 27 -24.49975586 26.88647461 C-23.41573486 26.89171143 -22.33171387 26.89694824 -21.21484375 26.90234375 C-19.46010742 26.90717773 -19.46010742 26.90717773 -17.66992188 26.91210938 C-15.82237305 26.92467773 -15.82237305 26.92467773 -13.9375 26.9375 C-12.08415039 26.94426758 -12.08415039 26.94426758 -10.19335938 26.95117188 C-7.12885883 26.96300392 -4.06445279 26.97948827 -1 27 C-1.00785522 25.82642944 -1.00785522 25.82642944 -1.01586914 24.62915039 C-1.03657106 21.10694167 -1.04963838 17.5847457 -1.0625 14.0625 C-1.07087891 12.83080078 -1.07925781 11.59910156 -1.08789062 10.33007812 C-1.09272461 8.5753418 -1.09272461 8.5753418 -1.09765625 6.78515625 C-1.10551147 5.15912476 -1.10551147 5.15912476 -1.11352539 3.50024414 C-1 1 -1 1 0 0 Z " fill="#877EFF" transform="translate(62,34)"/>
</svg>
