<svg width="24" height="24" viewBox="0 0 16 16" fill="none" xmlns="http://www.w3.org/2000/svg">
<path fill-rule="evenodd" clip-rule="evenodd" d="M7.99935 0.833496C6.25045 0.833496 4.83268 2.25126 4.83268 4.00016C4.83268 5.74906 6.25045 7.16683 7.99935 7.16683C9.74825 7.16683 11.166 5.74906 11.166 4.00016C11.166 2.25126 9.74825 0.833496 7.99935 0.833496ZM5.83268 4.00016C5.83268 2.80355 6.80273 1.8335 7.99935 1.8335C9.19597 1.8335 10.166 2.80355 10.166 4.00016C10.166 5.19678 9.19597 6.16683 7.99935 6.16683C6.80273 6.16683 5.83268 5.19678 5.83268 4.00016Z" fill="#877EFF"/>
<path d="M11.9993 2.16683C11.7232 2.16683 11.4993 2.39069 11.4993 2.66683C11.4993 2.94297 11.7232 3.16683 11.9993 3.16683C12.917 3.16683 13.4993 3.77065 13.4993 4.3335C13.4993 4.89634 12.917 5.50016 11.9993 5.50016C11.7232 5.50016 11.4993 5.72402 11.4993 6.00016C11.4993 6.27631 11.7232 6.50016 11.9993 6.50016C13.2908 6.50016 14.4993 5.6116 14.4993 4.3335C14.4993 3.05539 13.2908 2.16683 11.9993 2.16683Z" fill="#877EFF"/>
<path d="M4.49935 2.66683C4.49935 2.39069 4.27549 2.16683 3.99935 2.16683C2.70787 2.16683 1.49935 3.05539 1.49935 4.3335C1.49935 5.6116 2.70787 6.50016 3.99935 6.50016C4.27549 6.50016 4.49935 6.27631 4.49935 6.00016C4.49935 5.72402 4.27549 5.50016 3.99935 5.50016C3.08169 5.50016 2.49935 4.89634 2.49935 4.3335C2.49935 3.77065 3.08169 3.16683 3.99935 3.16683C4.27549 3.16683 4.49935 2.94297 4.49935 2.66683Z" fill="#877EFF"/>
<path fill-rule="evenodd" clip-rule="evenodd" d="M7.99935 8.16683C6.80983 8.16683 5.71032 8.48736 4.89357 9.03185C4.08032 9.57402 3.49935 10.3779 3.49935 11.3335C3.49935 12.2891 4.08032 13.093 4.89357 13.6351C5.71032 14.1796 6.80983 14.5002 7.99935 14.5002C9.18886 14.5002 10.2884 14.1796 11.1051 13.6351C11.9184 13.093 12.4993 12.2891 12.4993 11.3335C12.4993 10.3779 11.9184 9.57402 11.1051 9.03185C10.2884 8.48736 9.18886 8.16683 7.99935 8.16683ZM4.49935 11.3335C4.49935 10.8163 4.81381 10.2869 5.44827 9.8639C6.07924 9.44326 6.97972 9.16683 7.99935 9.16683C9.01897 9.16683 9.91945 9.44326 10.5504 9.8639C11.1849 10.2869 11.4993 10.8163 11.4993 11.3335C11.4993 11.8507 11.1849 12.3801 10.5504 12.8031C9.91945 13.2237 9.01897 13.5002 7.99935 13.5002C6.97972 13.5002 6.07924 13.2237 5.44827 12.8031C4.81381 12.3801 4.49935 11.8507 4.49935 11.3335Z" fill="#877EFF"/>
<path d="M12.8443 9.22639C12.9034 8.95666 13.1701 8.78595 13.4398 8.8451C14.081 8.98573 14.6589 9.23973 15.0879 9.59078C15.5165 9.94152 15.8327 10.4237 15.8327 11.0002C15.8327 11.5767 15.5165 12.0588 15.0879 12.4095C14.6589 12.7606 14.081 13.0146 13.4398 13.1552C13.1701 13.2144 12.9034 13.0437 12.8443 12.7739C12.7851 12.5042 12.9558 12.2376 13.2256 12.1784C13.7538 12.0626 14.176 11.8636 14.4546 11.6356C14.7336 11.4073 14.8327 11.1844 14.8327 11.0002C14.8327 10.816 14.7336 10.593 14.4546 10.3647C14.176 10.1367 13.7538 9.93773 13.2256 9.82189C12.9558 9.76274 12.7851 9.49613 12.8443 9.22639Z" fill="#877EFF"/>
<path d="M2.55891 8.8451C2.82865 8.78595 3.09526 8.95666 3.15441 9.22639C3.21356 9.49613 3.04285 9.76274 2.77312 9.82189C2.24487 9.93773 1.82272 10.1367 1.5441 10.3647C1.2651 10.593 1.16602 10.816 1.16602 11.0002C1.16602 11.1844 1.2651 11.4073 1.5441 11.6356C1.82272 11.8636 2.24487 12.0626 2.77312 12.1784C3.04285 12.2376 3.21356 12.5042 3.15441 12.7739C3.09526 13.0437 2.82865 13.2144 2.55891 13.1552C1.91766 13.0146 1.33982 12.7606 0.910811 12.4095C0.482181 12.0588 0.166016 11.5767 0.166016 11.0002C0.166016 10.4237 0.482181 9.94152 0.910811 9.59078C1.33982 9.23973 1.91766 8.98573 2.55891 8.8451Z" fill="#877EFF"/>
</svg>
