<svg width="16" height="18" viewBox="0 0 16 18" fill="none" xmlns="http://www.w3.org/2000/svg">
<path fill-rule="evenodd" clip-rule="evenodd" d="M7.9993 0.9375C4.78914 0.9375 2.1868 3.53984 2.1868 6.75V7.27808C2.1868 7.80077 2.03208 8.31176 1.74214 8.74667L0.880691 10.0388C-0.119131 11.5386 0.644149 13.5771 2.38309 14.0514C2.9498 14.2059 3.5213 14.3366 4.0961 14.4436L4.09753 14.4474C4.67427 15.9863 6.21575 17.0625 7.99925 17.0625C9.78275 17.0625 11.3242 15.9863 11.901 14.4474L11.9024 14.4436C12.4772 14.3367 13.0488 14.2059 13.6155 14.0514C15.3544 13.5771 16.1177 11.5386 15.1179 10.0388L14.2565 8.74667C13.9665 8.31176 13.8118 7.80077 13.8118 7.27808V6.75C13.8118 3.53984 11.2095 0.9375 7.9993 0.9375ZM10.5316 14.6527C8.84939 14.8537 7.1491 14.8537 5.46689 14.6527C6.0001 15.4189 6.92753 15.9375 7.99925 15.9375C9.07096 15.9375 9.99839 15.4189 10.5316 14.6527ZM3.3118 6.75C3.3118 4.16117 5.41046 2.0625 7.9993 2.0625C10.5881 2.0625 12.6868 4.16117 12.6868 6.75V7.27808C12.6868 8.02287 12.9073 8.751 13.3204 9.37071L14.1818 10.6629C14.7557 11.5237 14.3176 12.6938 13.3195 12.966C9.83631 13.916 6.16229 13.916 2.6791 12.966C1.68098 12.6938 1.24287 11.5237 1.81675 10.6629L2.6782 9.37071C3.09134 8.751 3.3118 8.02287 3.3118 7.27808V6.75Z" fill="#877EFF"/>
</svg>
