<svg height="200px" width="200px" version="1.1" id="Layer_1" xmlns="http://www.w3.org/2000/svg" xmlns:xlink="http://www.w3.org/1999/xlink" viewBox="0 0 512.00 512.00" xml:space="preserve" fill="#000000" stroke="#000000" stroke-width="0.00512" transform="matrix(-1, 0, 0, 1, 0, 0)"><g id="SVGRepo_bgCarrier" stroke-width="0" transform="translate(38.400000000000006,38.400000000000006), scale(0.85)"><rect x="0" y="0" width="512.00" height="512.00" rx="256" fill="#09090A" strokewidth="0"></rect></g><g id="SVGRepo_tracerCarrier" stroke-linecap="round" stroke-linejoin="round" stroke="#CCCCCC" stroke-width="16.384"></g><g id="SVGRepo_iconCarrier"> <path style="fill:#09090A;" d="M256,512C114.839,512,0,397.156,0,256S114.839,0,256,0s256,114.844,256,256S397.161,512,256,512z"></path> <path style="fill:#101012;" d="M512,256C512,114.844,397.161,0,256,0v512C397.161,512,512,397.156,512,256z"></path> <path style="fill:#877EFF;" d="M204.752,394.612c-5.408,0-10.72-2.621-13.933-7.469c-5.099-7.686-3-18.047,4.686-23.146 l164.568-109.165L195.505,145.666c-7.686-5.099-9.785-15.46-4.686-23.146c5.099-7.697,15.455-9.785,23.146-4.686l185.546,123.082 c4.664,3.098,7.469,8.317,7.469,13.916s-2.805,10.818-7.469,13.916L213.966,391.829 C211.128,393.709,207.921,394.612,204.752,394.612z"></path> <path style="fill:#5D5FEF;" d="M399.511,240.915l-142.824-94.744v40.079l103.386,68.581l-103.386,68.581v40.079l142.825-94.744 c4.664-3.098,7.469-8.317,7.469-13.916S404.175,244.013,399.511,240.915z"></path> </g></svg>