<svg xmlns="http://www.w3.org/2000/svg" width="24" height="24" viewBox="0 0 16 16" fill="none">
  <path fill-rule="evenodd" clip-rule="evenodd" d="M9 1.25C6.37665 1.25 4.25 3.37665 4.25 6C4.25 8.62335 6.37665 10.75 9 10.75C11.6234 10.75 13.75 8.62335 13.75 6C13.75 3.37665 11.6234 1.25 9 1.25ZM5.75 6C5.75 4.20507 7.20507 2.75 9 2.75C10.7949 2.75 12.25 4.20507 12.25 6C12.25 7.79493 10.7949 9.25 9 9.25C7.20507 9.25 5.75 7.79493 5.75 6Z" fill="#877EFF"/>
  <path fill-rule="evenodd" clip-rule="evenodd" d="M3.67815 13.5204C5.07752 12.7208 6.96067 12.25 9 12.25C11.0393 12.25 12.9225 12.7208 14.3219 13.5204C15.7 14.3079 16.75 15.5101 16.75 17C16.75 18.4899 15.7 19.6921 14.3219 20.4796C12.9225 21.2792 11.0393 21.75 9 21.75C6.96067 21.75 5.07752 21.2792 3.67815 20.4796C2.3 19.6921 1.25 18.4899 1.25 17C1.25 15.5101 2.3 14.3079 3.67815 13.5204ZM4.42236 14.8228C3.26701 15.483 2.75 16.2807 2.75 17C2.75 17.7193 3.26701 18.517 4.42236 19.1772C5.55649 19.8253 7.17334 20.25 9 20.25C10.8267 20.25 12.4435 19.8253 13.5776 19.1772C14.733 18.517 15.25 17.7193 15.25 17C15.25 16.2807 14.733 15.483 13.5776 14.8228C12.4435 14.1747 10.8267 13.75 9 13.75C7.17334 13.75 5.55649 14.1747 4.42236 14.8228Z" fill="#877EFF"/>
</svg>