<svg width="20" height="20" viewBox="0 0 20 20" fill="none" xmlns="http://www.w3.org/2000/svg">
<path fill-rule="evenodd" clip-rule="evenodd" d="M15.1197 3.02553C14.1447 3.19897 12.8302 3.63535 10.9855 4.25026L6.80943 5.64228C5.32607 6.13674 4.25167 6.49541 3.4928 6.81817C2.69941 7.15561 2.41718 7.39083 2.32551 7.5485C2.04318 8.03416 2.04318 8.63397 2.32551 9.11962C2.41718 9.27729 2.69941 9.51251 3.4928 9.84995C4.25167 10.1727 5.32607 10.5314 6.80943 11.0258C6.83285 11.0336 6.85598 11.0413 6.87882 11.0489C7.28397 11.1837 7.59893 11.2885 7.86988 11.4699C8.13091 11.6446 8.35515 11.8688 8.52991 12.1299C8.71129 12.4008 8.81606 12.7158 8.95082 13.1209C8.95842 13.1438 8.96611 13.1669 8.97392 13.1903C9.46837 14.6737 9.82704 15.7481 10.1498 16.507C10.4872 17.3003 10.7225 17.5826 10.8801 17.6742C11.3658 17.9566 11.9656 17.9566 12.4513 17.6742C12.6089 17.5826 12.8441 17.3003 13.1816 16.507C13.5043 15.7481 13.863 14.6737 14.3575 13.1903L15.7495 9.01427C16.3644 7.16953 16.8008 5.85506 16.9742 4.88008C17.1485 3.90046 17.0153 3.48433 16.7654 3.23439C16.5154 2.98444 16.0993 2.85126 15.1197 3.02553ZM14.8954 1.76481C15.9806 1.57177 16.9579 1.61601 17.6708 2.32893C18.3837 3.04184 18.428 4.01919 18.2349 5.10435C18.0431 6.18296 17.5752 7.58663 16.9828 9.36375L15.562 13.6261C15.0799 15.0722 14.7054 16.196 14.3599 17.0081C14.0267 17.7915 13.6568 18.4546 13.0948 18.7813C12.2113 19.2949 11.1201 19.2949 10.2366 18.7813C9.67461 18.4546 9.30464 17.7915 8.97144 17.0081C8.62602 16.196 8.25145 15.0723 7.7694 13.6261L7.75912 13.5953C7.59024 13.0886 7.53876 12.9512 7.46582 12.8422C7.3842 12.7203 7.27946 12.6156 7.15753 12.5339C7.04858 12.461 6.91115 12.4095 6.4045 12.2406L6.37363 12.2303C4.92747 11.7483 3.80378 11.3737 2.99162 11.0283C2.20822 10.6951 1.54518 10.3251 1.21848 9.76319C0.704841 8.87967 0.704842 7.78846 1.21848 6.90493C1.54518 6.34298 2.20822 5.97301 2.99162 5.63981C3.80379 5.29438 4.9275 4.91982 6.37368 4.43776L10.636 3.01698C12.4131 2.42459 13.8168 1.95669 14.8954 1.76481ZM14.7338 5.27094C14.9825 5.52235 14.9802 5.92773 14.7288 6.17638L11.3141 9.55343C11.0627 9.80208 10.6573 9.79983 10.4087 9.54842C10.16 9.297 10.1623 8.89162 10.4137 8.64297L13.8284 5.26592C14.0798 5.01727 14.4852 5.01952 14.7338 5.27094Z" fill="#877EFF" fill-opacity="0.937255"/>
</svg>
