<svg version="1.1" xmlns="http://www.w3.org/2000/svg" xmlns:xlink="http://www.w3.org/1999/xlink" width="50px" height="50px" viewBox="0,0,256,256"><g fill="#877eff" fill-rule="nonzero" stroke="none" stroke-width="1" stroke-linecap="butt" stroke-linejoin="miter" stroke-miterlimit="10" stroke-dasharray="" stroke-dashoffset="0" font-family="none" font-weight="none" font-size="none" text-anchor="none" style="mix-blend-mode: normal"><g transform="scale(5.12,5.12)"><path d="M8,5c-1.64497,0 -3,1.35503 -3,3v34c0,1.64497 1.35503,3 3,3h34c1.64497,0 3,-1.35503 3,-3v-34c0,-1.64497 -1.35503,-3 -3,-3zM8,7h34c0.56503,0 1,0.43497 1,1v34c0,0.56503 -0.43497,1 -1,1h-34c-0.56503,0 -1,-0.43497 -1,-1v-34c0,-0.56503 0.43497,-1 1,-1zM11,18v2h28v-2zM15,24v2h20v-2zM11,30v2h28v-2z"></path></g></g></svg>